<svg xmlns="http://www.w3.org/2000/svg" viewBox="0 0 320 320" width="320" height="320" role="img" aria-label="loopEng logo">
  <defs>
    <radialGradient id="glow" cx="32%" cy="22%" r="60%">
      <stop offset="0%" stop-color="#d6a35c" stop-opacity="0.10"/>
      <stop offset="60%" stop-color="#d6a35c" stop-opacity="0.02"/>
      <stop offset="100%" stop-color="#d6a35c" stop-opacity="0"/>
    </radialGradient>
  </defs>

  <rect x="1" y="1" width="318" height="318" rx="28" fill="#0c0c0d" stroke="#221f1a" stroke-width="2"/>
  <rect x="1" y="1" width="318" height="318" rx="28" fill="url(#glow)"/>

  <g transform="translate(160,160)">
    <circle
      r="118"
      fill="none"
      stroke="#8fae7e"
      stroke-opacity="0.28"
      stroke-width="3"
      stroke-linecap="round"
      stroke-dasharray="6 14"
      transform="rotate(-20)"
    />
    <polygon
      points="0,-7 13,0 0,7"
      fill="#8fae7e"
      fill-opacity="0.7"
      transform="translate(83,-83) rotate(45)"
    />
  </g>

  <g transform="translate(77,82)" fill="none" stroke-linecap="round" stroke-linejoin="round">
    <polyline points="30,48 48,18 66,48" stroke="#c9c5bd" stroke-width="7"/>
    <polyline points="100,48 118,18 136,48" stroke="#c9c5bd" stroke-width="7"/>
    <path d="M 34,60 Q 16,96 34,132" stroke="#8a8473" stroke-width="5"/>
    <path d="M 132,60 Q 150,96 132,132" stroke="#8a8473" stroke-width="5"/>
    <circle cx="62" cy="88" r="14" fill="#d6a35c"/>
    <circle cx="104" cy="88" r="14" fill="#d6a35c"/>
    <circle cx="57" cy="83" r="4.5" fill="#0c0c0d"/>
    <circle cx="99" cy="83" r="4.5" fill="#0c0c0d"/>
    <circle cx="66" cy="92" r="2" fill="#e8b96f"/>
    <circle cx="108" cy="92" r="2" fill="#e8b96f"/>
    <path d="M 72,104 Q 79,116 83,105 Q 87,116 94,104" stroke="#e8b96f" stroke-width="4.5"/>
    <rect x="52" y="144" width="20" height="13" rx="3.5" fill="#c9c5bd"/>
    <rect x="94" y="144" width="20" height="13" rx="3.5" fill="#c9c5bd"/>
  </g>
</svg>
